<svg version="1.1"  xmlns="http://www.w3.org/2000/svg" xmlns:xlink="http://www.w3.org/1999/xlink" x="0px" y="0px"
	 viewBox="0 0 48 48" style="enable-background:new 0 0 48 48;" xml:space="preserve">
<path style="fill:#455A64;" d="M44.125,39H3.875C1.738,39,0,37.295,0,35.2V12.8C0,10.705,1.738,9,3.875,9h40.25
	C46.262,9,48,10.705,48,12.8v22.4C48,37.295,46.262,39,44.125,39z"/>
<path style="fill:#FFFFFF;" d="M20.958,16L16,22.72L10.958,16H7v16h3.958V21.333L16,28l5-6.667V32h3.958V16H20.958z M37.958,24v-8
	H34v8h-5.042L36,32l6.958-8H37.958z"/>
</svg>
