<?xml version="1.0" encoding="UTF-8"?><svg  xmlns="http://www.w3.org/2000/svg" viewBox="0 0 130 140"><defs><style>.cls-1{fill:#0033a0;}.cls-2{fill:none;}.cls-3{fill:#fff;}</style></defs><g id="Layer_35" data-name="Layer 35"><path class="cls-1" d="M4.7,43V97a13.79,13.79,0,0,0,6.9,12l46.82,27a13.82,13.82,0,0,0,13.8,0L119,109a13.79,13.79,0,0,0,6.9-12V43A13.79,13.79,0,0,0,119,31L72.22,4a13.82,13.82,0,0,0-13.8,0L11.6,31A13.79,13.79,0,0,0,4.7,43Z"/><path class="cls-2" d="M84.9,49.81l-4.23,2.26v-.73A2.44,2.44,0,0,0,78.14,49H67.84a2.44,2.44,0,0,0-2.52,2.35v7.31A2.44,2.44,0,0,0,67.84,61h10.3a2.44,2.44,0,0,0,2.53-2.34v-.73l4.23,2.26c.8.43,1.46.07,1.46-.78V50.59C86.36,49.73,85.7,49.38,84.9,49.81Z"/><path class="cls-3" d="M93.93,53.17v-8.1a3.65,3.65,0,0,0-3.65-3.65H40.35a3.65,3.65,0,0,0-3.65,3.65V94.94a3.64,3.64,0,0,0,3.65,3.64H90.28a3.64,3.64,0,0,0,3.65-3.64V86.86a1.93,1.93,0,0,0,0-.24V53.38A1.48,1.48,0,0,0,93.93,53.17ZM60.44,88.23a6.74,6.74,0,0,1-.87,1.26,7,7,0,0,1-2.35,1.76,9.71,9.71,0,0,1-2.53.81c-.43.08-.86.15-1.3.21-.18,0-.38,0-.56,0-.8,0-1.6,0-2.4,0a10,10,0,0,1-1.54-.18,13.5,13.5,0,0,1-6.23-2.81l-.46-.39a.51.51,0,0,1-.08-.69c.71-1,1.42-2,2.14-3a.5.5,0,0,1,.8-.06,10.94,10.94,0,0,0,2.25,1.57,10.18,10.18,0,0,0,2.87,1c.52.09,1,.12,1.55.16a6.3,6.3,0,0,0,2.48-.31,3,3,0,0,0,1.73-1.29,1.71,1.71,0,0,0,.26-.88A1.78,1.78,0,0,0,55.52,84a5.79,5.79,0,0,0-2-.94c-.53-.17-1.07-.3-1.62-.43-.85-.22-1.71-.4-2.56-.63A17.83,17.83,0,0,1,46.67,81a9.47,9.47,0,0,1-1.69-1,5.64,5.64,0,0,1-1.69-2,5.71,5.71,0,0,1-.6-1.93,7.42,7.42,0,0,1-.08-1,6.48,6.48,0,0,1,1.81-4.49,8,8,0,0,1,3.27-2,9.48,9.48,0,0,1,2.23-.5l.56-.08c.57,0,1.16,0,1.75,0a17.58,17.58,0,0,1,1.77.14,12.82,12.82,0,0,1,4.38,1.47,11.83,11.83,0,0,1,2,1.31.49.49,0,0,1,.08.72l-1,1.36-1.16,1.54a.55.55,0,0,1-.8.06,10.12,10.12,0,0,0-1.55-1,10,10,0,0,0-2.49-.93,7.09,7.09,0,0,0-1.6-.22c-.37,0-.74-.05-1.11,0a3.48,3.48,0,0,0-2.46.91,2,2,0,0,0-.56,1.5A1.55,1.55,0,0,0,48.43,76a6,6,0,0,0,1.89.8c1,.26,2,.5,3,.75A23.42,23.42,0,0,1,57,78.71a9.6,9.6,0,0,1,2,1.18,5.91,5.91,0,0,1,1.65,2,5,5,0,0,1,.52,1.82A11.18,11.18,0,0,1,61.24,85,7.27,7.27,0,0,1,60.44,88.23ZM81,84.6H68.74c-.28,0-.31,0-.26.31a4.71,4.71,0,0,0,3.83,3.69,7.23,7.23,0,0,0,3-.21,7.75,7.75,0,0,0,2.38-1.12.48.48,0,0,1,.76.14c.47.69,1,1.38,1.42,2.08a.47.47,0,0,1-.14.74,10.87,10.87,0,0,1-4.84,2,12.21,12.21,0,0,1-4.09,0,8.66,8.66,0,0,1-4.65-2.44,8.57,8.57,0,0,1-2.52-5.06A10.42,10.42,0,0,1,64,80a9,9,0,0,1,2.88-4.1A8.6,8.6,0,0,1,71.26,74,9.16,9.16,0,0,1,77,75a8,8,0,0,1,2.87,2.7,9.78,9.78,0,0,1,1.47,4.22c.09.73.1,1.46.13,2.2A.44.44,0,0,1,81,84.6Zm5.4-25.2c0,.85-.66,1.21-1.46.78l-4.23-2.26v.73A2.44,2.44,0,0,1,78.14,61H67.84a2.44,2.44,0,0,1-2.52-2.34V51.34A2.44,2.44,0,0,1,67.84,49h10.3a2.44,2.44,0,0,1,2.53,2.35v.73l4.23-2.26c.8-.43,1.46-.08,1.46.78Z"/><path class="cls-1" d="M60.63,81.89a5.91,5.91,0,0,0-1.65-2,9.6,9.6,0,0,0-2-1.18,23.42,23.42,0,0,0-3.65-1.15c-1-.25-2-.49-3-.75a6,6,0,0,1-1.89-.8,1.55,1.55,0,0,1-.75-1.23,2,2,0,0,1,.56-1.5,3.48,3.48,0,0,1,2.46-.91c.37,0,.74,0,1.11,0a7.09,7.09,0,0,1,1.6.22,10,10,0,0,1,2.49.93,10.12,10.12,0,0,1,1.55,1,.55.55,0,0,0,.8-.06L59.41,73l1-1.36a.49.49,0,0,0-.08-.72,11.83,11.83,0,0,0-2-1.31A12.82,12.82,0,0,0,54,68.11,17.58,17.58,0,0,0,52.23,68c-.59,0-1.18,0-1.75,0l-.56.08a9.48,9.48,0,0,0-2.23.5,8,8,0,0,0-3.27,2,6.48,6.48,0,0,0-1.81,4.49,7.42,7.42,0,0,0,.08,1,5.71,5.71,0,0,0,.6,1.93,5.64,5.64,0,0,0,1.69,2,9.47,9.47,0,0,0,1.69,1,17.83,17.83,0,0,0,2.66.93c.85.23,1.71.41,2.56.63.55.13,1.09.26,1.62.43a5.79,5.79,0,0,1,2,.94,1.78,1.78,0,0,1,.68,1.47,1.71,1.71,0,0,1-.26.88,3,3,0,0,1-1.73,1.29,6.3,6.3,0,0,1-2.48.31c-.51,0-1-.07-1.55-.16a10.18,10.18,0,0,1-2.87-1,10.94,10.94,0,0,1-2.25-1.57.5.5,0,0,0-.8.06c-.72,1-1.43,2-2.14,3a.51.51,0,0,0,.08.69l.46.39a13.5,13.5,0,0,0,6.23,2.81,10,10,0,0,0,1.54.18c.8,0,1.6,0,2.4,0,.18,0,.38,0,.56,0,.44-.06.87-.13,1.3-.21a9.71,9.71,0,0,0,2.53-.81,7,7,0,0,0,2.35-1.76,6.74,6.74,0,0,0,.87-1.26,7.27,7.27,0,0,0,.8-3.23,11.18,11.18,0,0,0-.09-1.29A5,5,0,0,0,60.63,81.89Z"/><path class="cls-1" d="M79.85,77.68A8,8,0,0,0,77,75a9.16,9.16,0,0,0-5.72-1,8.6,8.6,0,0,0-4.34,1.87A9,9,0,0,0,64,80a10.42,10.42,0,0,0-.38,4.7,8.57,8.57,0,0,0,2.52,5.06,8.66,8.66,0,0,0,4.65,2.44,12.21,12.21,0,0,0,4.09,0,10.87,10.87,0,0,0,4.84-2,.47.47,0,0,0,.14-.74c-.47-.7-1-1.39-1.42-2.08a.48.48,0,0,0-.76-.14,7.75,7.75,0,0,1-2.38,1.12,7.23,7.23,0,0,1-3,.21,4.71,4.71,0,0,1-3.83-3.69c0-.27,0-.31.26-.31H81a.44.44,0,0,0,.49-.5c0-.74,0-1.47-.13-2.2A9.78,9.78,0,0,0,79.85,77.68Zm-3,3.79H68.65c-.25,0-.29,0-.25-.29A4,4,0,0,1,71,77.92a4.51,4.51,0,0,1,3.77.08A3.9,3.9,0,0,1,77,81c0,.1,0,.2,0,.3S77,81.46,76.83,81.47Z"/><path class="cls-3" d="M74.72,78A4.51,4.51,0,0,0,71,77.92a4,4,0,0,0-2.55,3.26c0,.25,0,.29.25.29h8.18c.13,0,.18-.07.16-.2s0-.2,0-.3A3.9,3.9,0,0,0,74.72,78Z"/><path class="cls-1" d="M86.36,59.4c0,.85-.66,1.21-1.46.78l-4.23-2.26v.73A2.44,2.44,0,0,1,78.14,61H67.84a2.44,2.44,0,0,1-2.52-2.34V51.34A2.44,2.44,0,0,1,67.84,49h10.3a2.44,2.44,0,0,1,2.53,2.35v.73l4.23-2.26c.8-.43,1.46-.08,1.46.78Z"/></g></svg>